<?xml version="1.0" standalone="no"?>
<!DOCTYPE svg PUBLIC "-//W3C//DTD SVG 20010904//EN"
 "http://www.w3.org/TR/2001/REC-SVG-20010904/DTD/svg10.dtd">
<svg version="1.0" xmlns="http://www.w3.org/2000/svg"
 width="450.000000pt" height="450.000000pt" viewBox="0 0 450.000000 450.000000"
 preserveAspectRatio="xMidYMid meet">
<metadata>
Created by potrace 1.16, written by Peter Selinger 2001-2019
</metadata>
<g transform="translate(0.000000,450.000000) scale(0.100000,-0.100000)"
fill="#000000" stroke="none">
<path d="M1868 3080 c-84 -25 -103 -49 -238 -295 -99 -180 -331 -594 -446
-797 -103 -183 -122 -239 -105 -323 22 -106 91 -193 190 -239 46 -21 52 -21
761 -21 715 0 715 0 770 27 70 34 109 75 158 163 37 67 115 205 375 660 112
196 120 214 121 265 1 67 -27 119 -87 158 -39 26 -45 27 -205 29 -90 1 -167 4
-170 7 -3 3 2 14 11 23 24 28 67 125 67 154 0 67 -41 134 -103 170 -42 24 -42
24 -557 26 -283 1 -527 -2 -542 -7z m1057 -154 c18 -27 14 -41 -48 -151 -33
-60 -33 -60 -323 -65 -273 -5 -291 -6 -330 -27 -22 -12 -45 -27 -51 -35 -12
-14 -100 -165 -241 -413 -187 -328 -365 -631 -381 -649 -30 -34 -68 -46 -146
-46 -63 0 -82 4 -115 25 -50 31 -80 89 -80 152 0 38 8 63 41 118 22 39 79 140
126 225 47 85 134 241 193 345 59 105 146 262 195 350 48 88 95 168 103 178
14 16 52 17 528 17 514 0 514 0 529 -24z m388 -377 c22 -30 37 3 -130 -289
-33 -58 -129 -226 -213 -375 -84 -148 -162 -281 -174 -293 -46 -52 -37 -51
-591 -52 -284 -1 -519 1 -523 4 -3 3 4 16 15 29 11 12 48 72 83 132 417 729
480 838 500 855 14 13 86 15 514 15 499 0 499 0 519 -26z"/>
</g>
</svg>
